<?xml version="1.0" encoding="UTF-8" standalone="no"?>
<!-- Created with Inkscape (http://www.inkscape.org/) -->

<svg
   xmlns:dc="http://purl.org/dc/elements/1.1/"
   xmlns:cc="http://creativecommons.org/ns#"
   xmlns:rdf="http://www.w3.org/1999/02/22-rdf-syntax-ns#"
   xmlns:svg="http://www.w3.org/2000/svg"
   xmlns="http://www.w3.org/2000/svg"
   xmlns:sodipodi="http://sodipodi.sourceforge.net/DTD/sodipodi-0.dtd"
   xmlns:inkscape="http://www.inkscape.org/namespaces/inkscape"
   width="26.458332mm"
   height="26.458332mm"
   viewBox="0 0 26.458332 26.458332"
   version="1.1"
   id="svg8"
   inkscape:version="0.92.3 (2405546, 2018-03-11)"
   sodipodi:docname="logo-ods--icon--black.svg">
  <defs
     id="defs2">
    <filter
       style="color-interpolation-filters:sRGB"
       inkscape:label="Greyscale"
       id="filter48">
      <feColorMatrix
         values="0.21 0.72 0.072 0 0 0.21 0.72 0.072 0 0 0.21 0.72 0.072 0 0 0 0 0 1 0 "
         id="feColorMatrix46" />
    </filter>
  </defs>
  <sodipodi:namedview
     id="base"
     pagecolor="#ffffff"
     bordercolor="#666666"
     borderopacity="1.0"
     inkscape:pageopacity="0.0"
     inkscape:pageshadow="2"
     inkscape:zoom="3.959798"
     inkscape:cx="35.05378"
     inkscape:cy="38.290155"
     inkscape:document-units="mm"
     inkscape:current-layer="layer1"
     showgrid="false"
     inkscape:window-width="1366"
     inkscape:window-height="740"
     inkscape:window-x="1440"
     inkscape:window-y="0"
     inkscape:window-maximized="1"
     fit-margin-top="0"
     fit-margin-left="0"
     fit-margin-right="0"
     fit-margin-bottom="0" />
  <metadata
     id="metadata5">
    <rdf:RDF>
      <cc:Work
         rdf:about="">
        <dc:format>image/svg+xml</dc:format>
        <dc:type
           rdf:resource="http://purl.org/dc/dcmitype/StillImage" />
        <dc:title></dc:title>
      </cc:Work>
    </rdf:RDF>
  </metadata>
  <g
     inkscape:label="Capa 1"
     inkscape:groupmode="layer"
     id="layer1">
    <g
       id="g4734"
       transform="matrix(0.21844132,0,0,0.21831565,21.076554,-12.388551)"
       style="fill:#000000;fill-opacity:1">
      <path
         id="path200"
         d="m -38.78554,177.86004 c -0.54072,-0.0342 -0.99178,-0.14944 -1.03468,-0.26432 -0.0849,-0.22724 2.16398,-25.56563 2.30061,-25.92169 0.0648,-0.16885 0.76178,-0.25047 2.76831,-0.32416 1.47494,-0.0542 3.43315,-0.22435 4.35156,-0.37817 0.91842,-0.15383 1.73304,-0.21578 1.81027,-0.13767 0.0772,0.0781 1.7548,5.77036 3.72795,12.64944 2.71726,9.47334 3.53581,12.53936 3.37435,12.63915 -0.34745,0.21474 -3.47039,0.8411 -5.92575,1.18852 -3.90316,0.55227 -8.11003,0.75531 -11.37262,0.5489 z"
         style="fill:#000000;fill-opacity:1;stroke-width:0.16933334"
         inkscape:connector-curvature="0" />
      <path
         id="path198"
         d="m -44.60025,177.34531 c -0.2794,-0.0314 -1.651,-0.28363 -3.048,-0.56061 -4.09751,-0.81243 -7.64634,-1.89025 -11.64167,-3.5357 -1.69282,-0.69718 -2.159,-0.95843 -2.159,-1.20988 0,-0.34914 11.40337,-23.2603 11.65434,-23.41541 0.0844,-0.0521 0.82339,0.17532 1.64221,0.5055 1.44291,0.58183 5.69188,1.76218 6.34341,1.76218 0.17676,0 0.36594,0.0721 0.42039,0.16019 0.088,0.14238 -1.98917,24.35803 -2.20356,25.68913 -0.0952,0.59086 -0.25834,0.68872 -1.00812,0.6046 z"
         style="fill:#000000;fill-opacity:1;stroke-width:0.16933334"
         inkscape:connector-curvature="0" />
      <path
         id="path196"
         d="m -17.66315,174.78859 c -0.0504,-0.0815 -1.69454,-5.73521 -3.65375,-12.56386 -2.83778,-9.89082 -3.51853,-12.45512 -3.34744,-12.60943 0.11811,-0.10654 0.59575,-0.33154 1.06142,-0.50001 1.36174,-0.49265 3.78281,-1.68701 5.31937,-2.62416 1.36707,-0.83378 1.4364,-0.85654 1.71379,-0.56267 0.63287,0.67048 15.46038,20.30603 15.52876,20.56419 0.0899,0.33934 -0.43632,0.74984 -3.00392,2.34341 -3.39879,2.10945 -8.3774,4.48925 -11.92533,5.70036 -1.2773,0.43602 -1.55382,0.47721 -1.6929,0.25217 z"
         style="fill:#000000;fill-opacity:1;stroke-width:0.16933334"
         inkscape:connector-curvature="0" />
      <path
         id="path194"
         d="m -66.92846,169.34168 c -2.49757,-1.52165 -4.88921,-3.18603 -6.92659,-4.82034 -2.22053,-1.78123 -5.74585,-5.14208 -5.67757,-5.4127 0.0416,-0.16477 4.37269,-4.14965 17.54234,-16.13999 l 1.74465,-1.58842 0.88002,0.78075 c 1.41134,1.25213 3.84119,3.13167 4.98636,3.85705 0.58208,0.36871 1.05833,0.73997 1.05833,0.82502 0,0.26804 -11.67818,23.52182 -11.81124,23.51873 -0.0697,-0.002 -0.87805,-0.46066 -1.7963,-1.0201 z"
         style="fill:#000000;fill-opacity:1;stroke-width:0.16933334"
         inkscape:connector-curvature="0" />
      <path
         id="path192"
         d="m 2.11402,164.13077 c -0.20383,-0.13469 -15.81094,-20.63848 -15.81094,-20.77156 0,-0.0489 0.78349,-0.86973 1.74109,-1.82405 0.9576,-0.95431 2.26402,-2.40786 2.90315,-3.23012 0.78568,-1.01081 1.2501,-1.47154 1.43391,-1.42254 0.33306,0.0888 21.68327,13.26537 22.01209,13.58507 0.19933,0.1938 0.0866,0.44193 -0.74463,1.63844 -2.38686,3.43589 -5.86316,7.36598 -8.96097,10.13071 -2.2193,1.98068 -2.32495,2.05843 -2.5737,1.89405 z"
         style="fill:#000000;fill-opacity:1;stroke-width:0.16933334"
         inkscape:connector-curvature="0" />
      <path
         id="path190"
         d="m -83.62346,154.74372 c -1.43925,-1.84127 -3.61641,-5.05465 -4.82658,-7.12379 -1.13125,-1.93419 -3.30955,-6.38294 -3.30955,-6.7591 0,-0.14173 0.20955,-0.34163 0.46567,-0.44421 4.6386,-1.858 23.73291,-9.1679 23.94761,-9.1679 0.20187,0 0.56383,0.52428 1.15056,1.66654 0.47083,0.9166 1.33142,2.37153 1.91244,3.23318 1.73025,2.56597 1.62678,2.31287 1.14024,2.78918 -2.28152,2.23353 -18.92189,17.2031 -19.12319,17.2031 -0.14588,0 -0.75662,-0.62865 -1.3572,-1.397 z"
         style="fill:#000000;fill-opacity:1;stroke-width:0.16933334"
         inkscape:connector-curvature="0" />
      <path
         id="path188"
         d="m 5.51958,140.48291 c -5.94625,-3.67573 -10.91456,-6.78635 -11.04071,-6.9125 -0.19293,-0.19292 -0.12524,-0.45608 0.42609,-1.65652 0.77935,-1.69695 1.57988,-3.8407 2.06634,-5.5335 0.30445,-1.05947 0.40541,-1.22767 0.73687,-1.22767 0.30992,0 23.77544,4.35246 25.12858,4.66093 0.4954,0.11293 0.4887,0.43875 -0.0523,2.54338 -1.04124,4.05045 -2.60697,8.20202 -4.59524,12.18436 -1.18985,2.38318 -1.34193,2.62466 -1.6529,2.62466 -0.11294,0 -5.07045,-3.00741 -11.01669,-6.68314 z"
         style="fill:#000000;fill-opacity:1;stroke-width:0.16933334"
         inkscape:connector-curvature="0" />
      <path
         id="path186"
         d="m -93.46943,136.54039 c -0.0976,-0.25612 -0.47446,-1.51599 -0.83748,-2.79971 -1.2117,-4.28495 -2.03179,-9.33629 -2.08154,-12.82129 l -0.0278,-1.94734 13.11269,-0.0434 c 10.37814,-0.0343 13.14085,10e-4 13.24774,0.16934 0.0743,0.11699 0.13666,0.47942 0.13864,0.80538 0.006,0.98156 0.48306,3.86408 0.96025,5.80149 0.24685,1.00219 0.40778,1.86319 0.35762,1.91335 -0.1862,0.1862 -24.08609,9.38783 -24.38351,9.38783 -0.18134,0 -0.38251,-0.19251 -0.48661,-0.46567 z"
         style="fill:#000000;fill-opacity:1;stroke-width:0.16933334"
         inkscape:connector-curvature="0" />
      <path
         id="path184"
         d="M 11.11041,123.80927 C 4.40481,122.53335 -1.27881,121.439 -1.51985,121.37739 l -0.43827,-0.11203 0.0699,-3.00932 c 0.0385,-1.65513 0.003,-3.59982 -0.0798,-4.32153 -0.0823,-0.72172 -0.1041,-1.38605 -0.0483,-1.47629 0.0908,-0.14696 24.92123,-4.91586 25.59671,-4.91608 0.34962,-1.1e-4 0.40019,0.21443 0.75828,3.21725 0.36118,3.02873 0.40224,9.3072 0.0814,12.44347 -0.25483,2.4909 -0.3889,2.97427 -0.81711,2.94606 -0.16529,-0.0109 -5.78693,-1.06374 -12.49253,-2.33965 z"
         style="fill:#000000;fill-opacity:1;stroke-width:0.16933334"
         inkscape:connector-curvature="0" />
      <path
         id="path182"
         d="m -96.44994,114.88134 c -0.16387,-0.42705 0.25617,-4.91035 0.71398,-7.62055 0.66661,-3.94635 2.24626,-9.810272 2.68844,-9.979953 0.23891,-0.09168 24.10196,9.011963 24.45184,9.328263 0.17829,0.16118 0.14259,0.46456 -0.19108,1.62391 -0.42415,1.47375 -0.87007,3.82676 -1.08849,5.74371 l -0.12541,1.10067 -13.17038,0.0434 c -12.17093,0.0401 -13.17861,0.0219 -13.2789,-0.23943 z"
         style="fill:#000000;fill-opacity:1;stroke-width:0.16933334"
         inkscape:connector-curvature="0" />
      <path
         id="path180"
         d="m -3.12223,107.97082 c -0.13494,-0.32297 -0.24536,-0.66833 -0.24536,-0.76746 0,-0.3271 -1.03945,-2.93224 -1.91132,-4.79029 -0.73957,-1.57608 -0.82416,-1.85924 -0.61599,-2.06196 0.33728,-0.32844 21.68276,-13.500161 22.02843,-13.593145 0.78714,-0.211742 4.63358,8.284641 6.163,13.613415 0.97976,3.41363 0.98124,3.3747 -0.13712,3.60205 -3.12416,0.6351 -24.38135,4.58462 -24.67544,4.58462 -0.25169,0 -0.43505,-0.17762 -0.6062,-0.58723 z"
         style="fill:#000000;fill-opacity:1;stroke-width:0.16933334"
         inkscape:connector-curvature="0" />
      <path
         id="path178"
         d="m -79.56759,98.315618 c -7.21399,-2.791851 -11.95688,-4.713822 -11.98572,-4.856998 -0.0771,-0.382727 2.69343,-5.796739 4.1669,-8.142732 1.42508,-2.268967 4.42447,-6.359693 5.16993,-7.051021 0.3835,-0.355651 0.47378,-0.376598 0.72982,-0.169334 1.16578,0.943666 18.94786,17.340323 18.98793,17.508557 0.028,0.117431 -0.32239,0.706632 -0.77857,1.309335 -0.99163,1.310127 -2.57697,3.846655 -3.20683,5.130915 -0.33829,0.68976 -0.54213,0.92133 -0.79973,0.90853 -0.19015,-0.01 -5.71783,-2.09622 -12.28373,-4.637252 z"
         style="fill:#000000;fill-opacity:1;stroke-width:0.16933334"
         inkscape:connector-curvature="0" />
      <path
         id="path176"
         d="m -9.2843,96.034344 c -0.50675,-0.653345 -1.8212,-2.077423 -2.921,-3.164614 -1.09979,-1.087192 -1.99784,-2.021631 -1.99566,-2.076528 0.01,-0.250336 15.62787,-20.764884 15.84605,-20.814182 0.5036,-0.113785 5.43539,4.460791 8.09252,7.506366 1.84036,2.109406 4.33683,5.454178 4.33279,5.805086 -0.002,0.200988 -3.38756,2.378838 -10.95147,7.045472 -6.02146,3.715007 -11.06821,6.784201 -11.21498,6.82043 -0.17155,0.04234 -0.59595,-0.358406 -1.18825,-1.12203 z"
         style="fill:#000000;fill-opacity:1;stroke-width:0.16933334"
         inkscape:connector-curvature="0" />
      <path
         id="path174"
         d="m -60.38142,92.259593 c -2.80954,-2.425473 -18.67817,-17.123964 -18.67817,-17.300855 0,-0.318297 2.96123,-3.122935 5.1691,-4.895755 3.37503,-2.709987 8.7897,-6.1776 9.32535,-5.97205 0.23347,0.08959 11.75973,23.063519 11.74722,23.414345 -0.003,0.07706 -0.78379,0.645568 -1.73566,1.263352 -0.95187,0.617784 -2.50914,1.779777 -3.46059,2.582205 l -1.72992,1.458962 z"
         style="fill:#000000;fill-opacity:1;stroke-width:0.16933334"
         inkscape:connector-curvature="0" />
      <path
         id="path172"
         d="m -18.5129,87.96926 c -1.37208,-0.827341 -3.28749,-1.76575 -4.96302,-2.431515 -0.98006,-0.389421 -1.397,-0.64054 -1.397,-0.84139 0,-0.206463 6.2297,-22.121088 7.04404,-24.779302 0.0499,-0.162983 0.23233,-0.296333 0.40534,-0.296333 0.43259,0 4.38822,1.506879 6.70795,2.555365 3.59588,1.625289 9.3246,5.033312 9.16292,5.451035 -0.13255,0.342482 -15.71138,20.949634 -15.83738,20.949165 -0.0643,-1.7e-4 -0.56956,-0.273401 -1.12285,-0.607025 z"
         style="fill:#000000;fill-opacity:1;stroke-width:0.16933334"
         inkscape:connector-curvature="0" />
      <path
         id="path170"
         d="m -49.37014,85.737132 c -0.10884,-0.06968 -2.79802,-5.382562 -5.97597,-11.806396 -5.29301,-10.699182 -5.75327,-11.697844 -5.48249,-11.895845 0.53835,-0.393647 5.35279,-2.20074 7.732,-2.902188 2.59195,-0.764171 6.80291,-1.670706 8.4943,-1.82865 0.85178,-0.07954 1.11337,-0.04989 1.17835,0.133548 0.13568,0.383062 2.50862,25.901976 2.41707,25.993526 -0.046,0.04604 -0.94959,0.277143 -2.00787,0.513564 -1.56685,0.350031 -4.68677,1.308542 -5.9035,1.813685 -0.1397,0.058 -0.34305,0.04844 -0.45189,-0.02124 z"
         style="fill:#000000;fill-opacity:1;stroke-width:0.16933334"
         inkscape:connector-curvature="0" />
      <path
         id="path66"
         d="m -30.96892,83.572556 c -0.6985,-0.121106 -2.35858,-0.275599 -3.68906,-0.343319 -1.33048,-0.06772 -2.45627,-0.183337 -2.50175,-0.256929 -0.16184,-0.261871 -2.49606,-25.684123 -2.38486,-25.973891 0.10491,-0.273391 0.45226,-0.289041 4.72545,-0.212912 4.88583,0.08704 6.98456,0.299083 10.99432,1.110783 1.99555,0.403961 2.25979,0.497449 2.30529,0.815611 0.0413,0.288799 -5.87185,21.291403 -6.84691,24.319154 -0.29783,0.924821 -0.34046,0.933691 -2.60248,0.541503 z"
         style="fill:#000000;fill-opacity:1;stroke-width:0.16933334"
         inkscape:connector-curvature="0" />
      <path
         id="path160"
         d="m -83.62346,154.74372 c -1.43925,-1.84127 -3.61641,-5.05465 -4.82658,-7.12379 -1.13125,-1.93419 -3.30955,-6.38294 -3.30955,-6.7591 0,-0.14173 0.20955,-0.34163 0.46567,-0.44421 4.6386,-1.858 23.73291,-9.1679 23.94761,-9.1679 0.20187,0 0.56383,0.52428 1.15056,1.66654 0.47083,0.9166 1.33142,2.37153 1.91244,3.23318 1.73025,2.56597 1.62678,2.31287 1.14024,2.78918 -2.28152,2.23353 -18.92189,17.2031 -19.12319,17.2031 -0.14588,0 -0.75662,-0.62865 -1.3572,-1.397 z"
         style="fill:#000000;fill-opacity:1;stroke-width:0.16933334"
         inkscape:connector-curvature="0" />
      <path
         id="path64"
         d="m -30.79959,83.403361 c -0.6985,-0.124883 -2.39395,-0.281164 -3.76766,-0.347289 -1.37372,-0.06613 -2.49767,-0.174777 -2.49767,-0.241449 0,-0.06667 -0.5334,-5.746858 -1.18533,-12.622639 -0.65194,-6.875781 -1.18534,-12.676735 -1.18534,-12.891009 v -0.389589 l 3.429,5.76e-4 c 3.95379,6.6e-4 6.2979,0.183332 9.86367,0.768628 3.46327,0.568471 4.39016,0.797172 4.44623,1.09706 0.0258,0.137723 -1.53964,5.774903 -3.47865,12.52707 -4.02348,14.010887 -3.32559,12.509617 -5.62425,12.098641 z"
         style="fill:#000000;fill-opacity:1;stroke-width:0.16933334"
         inkscape:connector-curvature="0" />
      <path
         id="path136"
         d="m -83.55554,154.57439 c -1.39406,-1.75431 -3.4546,-4.78794 -4.72367,-6.95446 -1.27763,-2.18112 -3.36328,-6.50902 -3.26201,-6.76894 0.0829,-0.21276 23.71336,-9.43393 24.17406,-9.4333 0.16123,1.7e-4 0.5204,0.53641 0.93134,1.39034 0.36789,0.76448 1.29961,2.33946 2.07047,3.49995 0.77086,1.16049 1.38046,2.16661 1.35467,2.23582 -0.0999,0.26805 -19.02412,17.42098 -19.22349,17.42419 -0.11618,0.002 -0.7108,-0.62525 -1.32137,-1.3936 z"
         style="fill:#000000;fill-opacity:1;stroke-width:0.16933334"
         inkscape:connector-curvature="0" />
    </g>
  </g>
</svg>
