<?xml version="1.0" encoding="UTF-8" standalone="no"?>
<!-- Created with Inkscape (http://www.inkscape.org/) -->

<svg
   xmlns:dc="http://purl.org/dc/elements/1.1/"
   xmlns:cc="http://creativecommons.org/ns#"
   xmlns:rdf="http://www.w3.org/1999/02/22-rdf-syntax-ns#"
   xmlns:svg="http://www.w3.org/2000/svg"
   xmlns="http://www.w3.org/2000/svg"
   xmlns:sodipodi="http://sodipodi.sourceforge.net/DTD/sodipodi-0.dtd"
   xmlns:inkscape="http://www.inkscape.org/namespaces/inkscape"
   width="13.229167mm"
   height="13.229167mm"
   viewBox="0 0 13.229167 13.229167"
   version="1.1"
   id="svg8"
   inkscape:version="0.92.3 (2405546, 2018-03-11)"
   sodipodi:docname="instagram.svg">
  <defs
     id="defs2" />
  <sodipodi:namedview
     id="base"
     pagecolor="#ffffff"
     bordercolor="#666666"
     borderopacity="1.0"
     inkscape:pageopacity="0.0"
     inkscape:pageshadow="2"
     inkscape:zoom="2.8"
     inkscape:cx="77.811482"
     inkscape:cy="-47.685154"
     inkscape:document-units="mm"
     inkscape:current-layer="layer1"
     showgrid="false"
     fit-margin-top="0"
     fit-margin-left="0"
     fit-margin-right="0"
     fit-margin-bottom="0"
     inkscape:window-width="1440"
     inkscape:window-height="872"
     inkscape:window-x="0"
     inkscape:window-y="0"
     inkscape:window-maximized="1" />
  <metadata
     id="metadata5">
    <rdf:RDF>
      <cc:Work
         rdf:about="">
        <dc:format>image/svg+xml</dc:format>
        <dc:type
           rdf:resource="http://purl.org/dc/dcmitype/StillImage" />
        <dc:title></dc:title>
      </cc:Work>
    </rdf:RDF>
  </metadata>
  <g
     inkscape:label="Capa 1"
     inkscape:groupmode="layer"
     id="layer1"
     transform="translate(0,4.1569991)">
    <g
       aria-label=""
       style="font-style:normal;font-variant:normal;font-weight:normal;font-stretch:normal;font-size:15.43277168px;line-height:1.25;font-family:FontAwesome;-inkscape-font-specification:FontAwesome;letter-spacing:0px;word-spacing:0px;fill:#55555f;fill-opacity:0.94117647;stroke:none;stroke-width:0.26458332"
       id="text12">
      <path
         d="m 8.8192649,2.4575842 c 0,1.2142973 -0.9903843,2.2046816 -2.2046816,2.2046816 -1.2142974,0 -2.2046817,-0.9903843 -2.2046817,-2.2046816 0,-1.2142973 0.9903843,-2.20468169 2.2046817,-2.20468169 1.2142973,0 2.2046816,0.99038439 2.2046816,2.20468169 z m 1.1884611,0 c 0,-1.87742426 -1.5157185,-3.3931429 -3.3931427,-3.3931429 -1.8774243,0 -3.3931429,1.51571864 -3.3931429,3.3931429 0,1.8774242 1.5157186,3.3931429 3.3931429,3.3931429 1.8774242,0 3.3931427,-1.5157187 3.3931427,-3.3931429 z m 0.9301,-3.5309355 c 0,-0.4392139 -0.353093,-0.7923075 -0.792307,-0.7923075 -0.4392142,0 -0.7923077,0.3530936 -0.7923077,0.7923075 0,0.43921392 0.3530935,0.79230747 0.7923077,0.79230747 0.439214,0 0.792307,-0.35309355 0.792307,-0.79230747 z M 6.6145833,-2.9679996 c 0.9645482,0 3.0314373,-0.077508 3.9012527,0.2669732 0.301422,0.1205685 0.525335,0.2669731 0.75786,0.4994981 0.232525,0.2325251 0.378929,0.456438 0.499498,0.7578594 0.344481,0.86981578 0.266973,2.9367048 0.266973,3.9012531 0,0.9645482 0.07751,3.0314373 -0.266973,3.9012531 -0.120569,0.3014213 -0.266973,0.5253343 -0.499498,0.7578593 -0.232525,0.232525 -0.456438,0.3789297 -0.75786,0.4994982 C 9.6460206,7.9606763 7.5791315,7.883168 6.6145833,7.883168 5.650035,7.883168 3.583146,7.9606763 2.7133301,7.6161948 2.4119088,7.4956263 2.1879958,7.3492216 1.9554708,7.1166966 1.7229458,6.8841716 1.5765412,6.6602586 1.4559726,6.3588373 1.1114911,5.4890215 1.1889995,3.4221324 1.1889995,2.4575842 c 0,-0.9645483 -0.077508,-3.03143732 0.2669731,-3.9012531 0.1205686,-0.3014214 0.2669732,-0.5253343 0.4994982,-0.7578594 0.232525,-0.232525 0.456438,-0.3789296 0.7578593,-0.4994981 C 3.583146,-3.045508 5.650035,-2.9679996 6.6145833,-2.9679996 Z m 6.6140447,5.4255838 c 0,-0.912876 0.0086,-1.81713999 -0.04306,-2.730016 -0.05167,-1.0592806 -0.292809,-1.9979928 -1.067893,-2.7730762 -0.775083,-0.7750834 -1.713795,-1.0162204 -2.7730758,-1.0678926 -0.912876,-0.051672 -1.8171399,-0.04306 -2.7300159,-0.04306 -0.912876,0 -1.81714,-0.00861 -2.730016,0.04306 -1.0592807,0.051672 -1.9979928,0.2928092 -2.7730762,1.0678926 -0.77508337,0.7750834 -1.01622043,1.7137956 -1.06789266,2.7730762 -0.05167223,0.91287601 -0.0430601877,1.81714 -0.0430601877,2.730016 0,0.912876 -0.008612042,1.8171399 0.0430601877,2.7300159 0.05167223,1.0592807 0.29280929,1.9979928 1.06789266,2.7730762 0.7750834,0.7750834 1.7137955,1.0162205 2.7730762,1.0678927 0.912876,0.051672 1.81714,0.04306 2.730016,0.04306 0.912876,0 1.8171399,0.00861 2.7300159,-0.04306 1.0592808,-0.051672 1.9979928,-0.2928093 2.7730758,-1.0678927 0.775084,-0.7750834 1.016221,-1.7137955 1.067893,-2.7730762 0.05167,-0.912876 0.04306,-1.8171399 0.04306,-2.7300159 z"
         style="fill:#55555f;fill-opacity:0.94117647;stroke-width:0.26458332"
         id="path841" />
    </g>
  </g>
</svg>
