<?xml version="1.0" encoding="utf-8"?>
<!-- Generator: Adobe Illustrator 16.0.0, SVG Export Plug-In . SVG Version: 6.00 Build 0)  -->
<!DOCTYPE svg PUBLIC "-//W3C//DTD SVG 1.1//EN" "http://www.w3.org/Graphics/SVG/1.1/DTD/svg11.dtd">
<svg version="1.1" id="Layer_1" xmlns="http://www.w3.org/2000/svg" xmlns:xlink="http://www.w3.org/1999/xlink" x="0px" y="0px"
	 width="130px" height="25px" viewBox="0 0 130 25" enable-background="new 0 0 130 25" xml:space="preserve">
<g id="Capa_1">
</g>
<g>
	<g>
		<path fill="#1C1C1B" d="M12.477,3.921c-5.053,0-9.136,3.938-9.136,8.821c0,4.91,4.083,8.878,9.136,8.878
			c2.37,0,4.597-0.913,6.281-2.427l0.743,0.828c-1.856,1.713-4.397,2.77-7.052,2.77c-5.681,0-10.306-4.48-10.306-10.021
			c0-5.539,4.625-9.992,10.306-9.992c2.684,0,5.167,1.028,7.023,2.684l-0.714,0.914C17.102,4.835,14.846,3.921,12.477,3.921z"/>
		<path fill="#1C1C1B" d="M25.518,2.808v19.956h-1.199V2.808H25.518z"/>
	</g>
</g>
<g>
	<g>
		<path fill="#1C1C1B" d="M52.685,2.808v19.956h-1.2V2.808H52.685z"/>
		<path fill="#1C1C1B" d="M67.756,3.921c-5.053,0-9.136,3.938-9.136,8.821c0,4.91,4.083,8.878,9.136,8.878
			c2.369,0,4.597-0.913,6.279-2.427l0.744,0.828c-1.857,1.713-4.398,2.77-7.053,2.77c-5.682,0-10.306-4.48-10.306-10.021
			c0-5.539,4.625-9.992,10.306-9.992c2.684,0,5.168,1.028,7.023,2.684l-0.715,0.914C72.381,4.835,70.125,3.921,67.756,3.921z"/>
		<path fill="#1C1C1B" d="M84.852,4.007c-3.169,0-5.225,1.313-5.225,3.397c0,6.08,11.732,2.939,11.677,10.307
			c0,3.083-2.771,5.081-6.938,5.081c-2.654,0-5.367-1.171-7.107-2.884l0.628-1.057c1.627,1.686,4.168,2.713,6.51,2.713
			c3.427,0,5.623-1.484,5.623-3.826c0.058-6.252-11.676-3.055-11.676-10.249c0-2.883,2.627-4.739,6.565-4.739
			c2.027,0,4.226,0.657,5.709,1.627l-0.541,1.085C88.592,4.492,86.565,4.007,84.852,4.007z"/>
	</g>
</g>
<rect x="108.81" y="8.768" width="8.372" height="0.172"/>
<rect x="108.81" y="16.959" width="8.372" height="0.172"/>
<g>
	<path fill="#1C1C1B" d="M100.601,6.805V2.75h0.243v4.053h-0.243V6.805z"/>
	<path fill="#1C1C1B" d="M105.922,6.805l-0.006-3.718l-1.664,3.276h-0.11l-1.677-3.276v3.718h-0.23V2.75h0.338l1.629,3.189
		l1.616-3.189h0.337v4.053h-0.232V6.805z"/>
	<path fill="#1C1C1B" d="M108.97,2.75c0.997,0,1.56,0.487,1.56,1.334c0,0.87-0.563,1.368-1.56,1.368h-1.185v1.351h-0.242V2.75
		H108.97z M107.787,5.215h1.178c0.846,0,1.334-0.4,1.334-1.125c0-0.713-0.488-1.102-1.334-1.102h-1.178V5.215z"/>
	<path fill="#1C1C1B" d="M114.575,5.146c0,1.055-0.604,1.665-1.642,1.665s-1.643-0.609-1.643-1.665V2.75h0.244v2.395
		c0,0.904,0.517,1.425,1.397,1.425s1.396-0.521,1.396-1.425V2.75h0.244v2.396H114.575z"/>
	<path fill="#1C1C1B" d="M117.913,6.566v0.238h-2.047V2.75h0.242v3.814h1.805V6.566z"/>
	<path fill="#1C1C1B" d="M121.007,3.07l-0.11,0.22c-0.302-0.197-0.713-0.296-1.062-0.296c-0.644,0-1.062,0.267-1.062,0.69
		c0,1.235,2.384,0.597,2.371,2.093c0,0.625-0.563,1.032-1.407,1.032c-0.539,0-1.091-0.238-1.445-0.584l0.129-0.216
		c0.33,0.343,0.846,0.552,1.322,0.552c0.694,0,1.142-0.302,1.142-0.777c0.012-1.27-2.371-0.621-2.371-2.082
		c0-0.586,0.532-0.962,1.333-0.962C120.259,2.739,120.706,2.873,121.007,3.07z"/>
	<path fill="#1C1C1B" d="M122.327,5.65l-0.521,1.155h-0.269l1.838-4.054h0.263l1.854,4.054h-0.267l-0.528-1.155H122.327z
		 M123.505,3.029l-1.073,2.377h2.157L123.505,3.029z"/>
</g>
<g>
	<path fill="#1C1C1B" d="M104.174,19.207l-0.145,0.186c-0.338-0.313-0.795-0.498-1.277-0.498c-1.024,0-1.854,0.799-1.854,1.791
		c0,0.998,0.83,1.804,1.854,1.804c0.482,0,0.935-0.187,1.277-0.492l0.149,0.168c-0.377,0.349-0.894,0.563-1.433,0.563
		c-1.153,0-2.094-0.91-2.094-2.035s0.939-2.029,2.094-2.029C103.291,18.662,103.797,18.871,104.174,19.207z"/>
	<path fill="#1C1C1B" d="M105.56,22.721v-4.053h0.244v4.053H105.56z"/>
	<path fill="#1C1C1B" d="M110.779,21.063c0,1.056-0.604,1.664-1.642,1.664c-1.037,0-1.642-0.608-1.642-1.664v-2.395h0.244v2.395
		c0,0.904,0.516,1.427,1.396,1.427c0.882,0,1.398-0.521,1.398-1.427v-2.395h0.241v2.395H110.779z"/>
	<path fill="#1C1C1B" d="M114.083,18.668c1.154,0,2.082,0.893,2.082,2.029c0,1.125-0.928,2.023-2.088,2.023h-1.605v-4.054
		L114.083,18.668L114.083,18.668z M112.715,22.482h1.368c1.016,0,1.832-0.795,1.832-1.785c0-0.998-0.816-1.793-1.838-1.793h-1.362
		V22.482z"/>
	<path fill="#1C1C1B" d="M117.573,21.566l-0.521,1.154h-0.267l1.838-4.054h0.261l1.854,4.054h-0.267l-0.526-1.154H117.573z
		 M118.751,18.945l-1.072,2.378h2.156L118.751,18.945z"/>
	<path fill="#1C1C1B" d="M123.493,18.668c1.154,0,2.082,0.893,2.082,2.029c0,1.125-0.928,2.023-2.088,2.023h-1.605v-4.054
		L123.493,18.668L123.493,18.668z M122.126,22.482h1.367c1.016,0,1.832-0.795,1.832-1.785c0-0.998-0.816-1.793-1.838-1.793h-1.361
		V22.482z"/>
</g>
<g>
	<path fill="#1C1C1B" d="M111.051,11.225v3.815h-0.243v-3.815h-1.369v-0.238h2.979v0.238H111.051z"/>
	<path fill="#1C1C1B" d="M116.366,13.382c0,1.056-0.604,1.664-1.641,1.664c-1.039,0-1.642-0.608-1.642-1.664v-2.396h0.242v2.396
		c0,0.904,0.518,1.427,1.398,1.427s1.396-0.521,1.396-1.427v-2.396h0.244v2.396H116.366z"/>
</g>
<g>
	<path fill="#1C1C1B" d="M38.909,23.048l-2.578-4.292l-0.073-0.054l0.037-0.034L30.801,3.556l-0.393-0.484l0.14-0.113l0.064,0.079
		l-0.043-0.117l2.673,0.095l2.116,6.164l-4.21-5.195l5.289,14.552l7.094-6.626l1.922-9.615h2.151l-1.997,7.922l-0.019,0.019
		l-1.892,1.767l-2.11,10.558l-0.06,0.013L38.909,23.048z M36.706,19.034l2.292,3.813l2.292-0.418L36.706,19.034z M36.54,18.688
		l4.91,3.638l2.021-10.113L36.54,18.688z M45.601,2.474l-1.843,9.224l1.689-1.578l1.927-7.646H45.601z M30.96,3.465l3.898,4.811
		l-1.746-5.084L30.831,3.11L30.96,3.465z"/>
	
		<rect x="42.15" y="9.371" transform="matrix(-0.8884 -0.4591 0.4591 -0.8884 72.1661 50.6572)" fill="#1C1C1B" width="0.181" height="14.372"/>
	
		<rect x="40.873" y="1.195" transform="matrix(-0.8729 -0.4879 0.4879 -0.8729 71.5753 39.7282)" fill="#1C1C1B" width="0.18" height="18.691"/>
	<path fill="none" stroke="#1C1C1B" stroke-width="0.18" stroke-miterlimit="10" d="M36.398,18.693"/>
	<polygon fill="#1C1C1B" points="42.314,17.639 37.7,16.325 36.981,14.464 35.023,8.756 35.193,8.697 37.15,14.402 37.834,16.177 
		42.364,17.465 	"/>
	
		<rect x="27.564" y="9.543" transform="matrix(-0.4076 -0.9132 0.9132 -0.4076 40.2055 45.3492)" fill="#1C1C1B" width="14.496" height="0.181"/>
	<circle fill="#1C1C1B" cx="30.701" cy="3.015" r="0.432"/>
	<path fill="#1C1C1B" d="M36.829,18.716c0,0.238-0.193,0.435-0.43,0.435c-0.241,0-0.433-0.195-0.433-0.435s0.191-0.432,0.433-0.432
		C36.636,18.284,36.829,18.479,36.829,18.716z"/>
	<circle fill="#1C1C1B" cx="33.232" cy="3.015" r="0.466"/>
	<path fill="#1C1C1B" d="M45.889,10.311c0,0.26-0.207,0.465-0.469,0.465c-0.255,0-0.465-0.205-0.465-0.465
		c0-0.261,0.21-0.471,0.465-0.471C45.682,9.84,45.889,10.05,45.889,10.311z"/>
	<path fill="#1C1C1B" d="M38.232,16.132c0,0.259-0.211,0.47-0.466,0.47c-0.258,0-0.469-0.211-0.469-0.47
		c0-0.256,0.211-0.467,0.469-0.467C38.021,15.665,38.232,15.876,38.232,16.132z"/>
	<path fill="#1C1C1B" d="M45.854,2.384c0,0.239-0.193,0.434-0.435,0.434c-0.234,0-0.429-0.194-0.429-0.434
		c0-0.238,0.194-0.431,0.429-0.431C45.661,1.953,45.854,2.146,45.854,2.384z"/>
	<circle fill="#1C1C1B" cx="42.337" cy="17.552" r="0.434"/>
	<path fill="#1C1C1B" d="M47.954,2.545c0,0.259-0.209,0.47-0.465,0.47c-0.259,0-0.469-0.211-0.469-0.47
		c0-0.255,0.21-0.466,0.469-0.466C47.745,2.079,47.954,2.29,47.954,2.545z"/>
	<circle fill="#1C1C1B" cx="41.512" cy="22.481" r="0.467"/>
</g>
<path fill="#1C1C1B" d="M-53.625-85.458"/>
</svg>
